<svg xmlns="http://www.w3.org/2000/svg" width="50" height="50" viewBox="0 0 50 50"><g><circle fill="#25d366" cx="25" cy="25" r="25"/><path fill="#fff" d="M37.5 12.5a15 15 0 0 0-25.5 16.1L10 40l11.7-2.9A15 15 0 1 0 37.5 12.5zm-12.5 22c-2.5 0-4.9-.7-7-2l-.5-.3-4.2 1.1 1.1-4.1-.3-.5a12.1 12.1 0 1 1 5.9 5.8zm6.6-9.1c-.4-.2-2.3-1.1-2.6-1.2-.3-.1-.5-.2-.7.2-.2.4-.8 1.2-1 1.4-.2.2-.4.3-.8.1-.4-.2-1.7-.6-3.2-2-1.2-1.1-2-2.4-2.2-2.8-.2-.4 0-.6.2-.8.2-.2.4-.5.6-.7.2-.2.2-.4.3-.6.1-.2 0-.5 0-.7 0-.2-.7-1.7-1-2.3-.3-.6-.5-.5-.7-.5h-.6c-.2 0-.5.1-.7.3-.2.2-1 1-1 2.5s1 2.9 1.1 3.1c.1.2 2.1 3.2 5.1 4.4.7.3 1.2.5 1.6.6.7.2 1.3.2 1.8.1.6-.1 1.8-.7 2-1.4.2-.7.2-1.3.1-1.4-.1-.1-.3-.2-.7-.4z"/></g></svg> 